<svg xmlns="http://www.w3.org/2000/svg" width="13" height="13" viewBox="0 0 13 13">
    <g data-name="Grupo 66318">
        <g data-name="Elipse 1166" style="fill:#fff;stroke:#eb0029">
            <circle cx="6.5" cy="6.5" r="6.5" style="stroke:none"/>
            <circle cx="6.5" cy="6.5" r="6" style="fill:none"/>
        </g>
        <g data-name="Grupo 66317">
            <path data-name="Stroke 1" d="M3.258.143a.488.488 0 0 1 .737.635l-.048.054L.832 3.947A.488.488 0 0 1 .1 3.312l.047-.055z" transform="translate(4.455 4.455)" style="fill:#eb0029"/>
            <path data-name="Stroke 2" d="M.143.143A.488.488 0 0 1 .778.1l.054.043L3.95 3.261A.488.488 0 0 1 3.315 4l-.055-.05L.143.832a.488.488 0 0 1 0-.689z" transform="translate(4.454 4.454)" style="fill:#eb0029"/>
        </g>
    </g>
</svg>
