<svg xmlns="http://www.w3.org/2000/svg" width="248.246" height="210.903">
    <defs>
        <style>
            .cls-1,.cls-4{fill:#eb0029}.cls-1{opacity:.292}.cls-6,.cls-7{fill:#fff}.cls-6{stroke:#263238;stroke-miterlimit:10;stroke-linecap:round;stroke-linejoin:round}.cls-9{fill:#263238}
        </style>
    </defs>
    <g id="Grupo_50854" data-name="Grupo 50854" transform="translate(-619.122 -492.446)">
        <path id="Trazado_23722" data-name="Trazado 23722" class="cls-1" d="M666.655 451.728h-7.34V444.3h-4.775v7.428h-7.34v4.687h7.34v7.34h4.775v-7.34h7.34z" transform="translate(156.716 238.933)"/>
        <path id="Trazado_23720" data-name="Trazado 23720" d="M659.8 449.111h-4.754V444.3h-3.093v4.811H647.2v3.036h4.754v4.753h3.093v-4.754h4.753z" transform="translate(156.716 129.851)" style="fill:#ea0129;opacity:.292"/>
        <path id="Trazado_23721" data-name="Trazado 23721" class="cls-1" d="M672.4 453.922h-9.508V444.3h-6.186v9.622H647.2v6.071h9.508v9.507h6.186v-9.508h9.506z" transform="translate(194.967 169.818)"/>
        <path id="Trazado_23719" data-name="Trazado 23719" d="M15.824 0h25.261a3.231 3.231 0 0 1 2.775 1.6l12.63 21.881a3.192 3.192 0 0 1 0 3.207L43.873 48.572a3.2 3.2 0 0 1-2.775 1.6H15.837a3.231 3.231 0 0 1-2.775-1.6L.432 26.688a3.192 3.192 0 0 1 0-3.207L13.062 1.6A3.167 3.167 0 0 1 15.824 0z" transform="rotate(-73 786.669 -90.83)" style="stroke:#eb0029;fill:#eb0029"/>
        <path id="Trazado_23717" data-name="Trazado 23717" class="cls-4" d="M11.955 0h19.084a2.441 2.441 0 0 1 2.1 1.206l9.539 16.534a2.411 2.411 0 0 1 0 2.423L33.145 36.7a2.42 2.42 0 0 1-2.1 1.206h-19.08a2.441 2.441 0 0 1-2.1-1.206L.326 20.162a2.411 2.411 0 0 1 0-2.423L9.868 1.206A2.393 2.393 0 0 1 11.955 0z" transform="rotate(-73 670.1 -151.562)"/>
        <path id="Trazado_23718" data-name="Trazado 23718" d="M30.527 0A30.527 30.527 0 1 1 0 30.527 30.527 30.527 0 0 1 30.527 0z" transform="rotate(-90 602.54 -40.989)" style="fill:transparent;opacity:.516;stroke:#eb0029"/>
        <g id="Grupo_50856" data-name="Grupo 50856" transform="translate(642.719 531.025)">
            <g id="Grupo_47537" data-name="Grupo 47537" transform="translate(3.969 86.701)">
                <g id="Grupo_50852" data-name="Grupo 50852">
                    <path id="Trazado_42178" data-name="Trazado 42178" class="cls-6" d="M94.188 305.046a.7.7 0 0 1-.724-.579c-1.23-6.949-11-14.476-11.074-14.549a.691.691 0 0 1-.217-.869.784.784 0 0 1 .869-.362c.434.145 9.337 2.75 13.535 7.528-.651-6.442-1.52-15.2-8.9-18.819a.661.661 0 0 1-.362-.869.738.738 0 0 1 .869-.434c7.528 2.1 16.069 7.166 15.562 19.471 3.112-3.981 7.528-6.37 13.463-7.455a.667.667 0 0 1 .8.507.784.784 0 0 1-.362.869c-7.021 3.04-9.337 9.482-8.541 14.187" transform="translate(-82.1 -276.075)"/>
                </g>
            </g>
            <g id="Grupo_50857" data-name="Grupo 50857" transform="translate(168.266 86.701)">
                <g id="Grupo_50852-2" data-name="Grupo 50852">
                    <path id="Trazado_42178-2" data-name="Trazado 42178" class="cls-6" d="M100.882 305.046a.6.6 0 0 0 .57-.579c.97-6.949 8.671-14.476 8.728-14.549a.812.812 0 0 0 .171-.869.575.575 0 0 0-.685-.362c-.342.145-7.359 2.75-10.667 7.528.513-6.442 1.2-15.2 7.016-18.819a.736.736 0 0 0 .285-.869.562.562 0 0 0-.685-.434c-5.933 2.1-12.664 7.166-12.264 19.471a16.048 16.048 0 0 0-10.61-7.455.538.538 0 0 0-.627.507.88.88 0 0 0 .285.869c5.533 3.04 7.359 9.482 6.731 14.187" transform="translate(-82.1 -276.075)"/>
                </g>
            </g>
            <g id="Grupo_47535" data-name="Grupo 47535" transform="translate(103.496)">
                <g id="Grupo_47537-2" data-name="Grupo 47537">
                    <g id="Grupo_47535-2" data-name="Grupo 47535">
                        <path id="Trazado_40377" data-name="Trazado 40377" class="cls-4" d="M296.328 234.256c-2.316-1.3-5.573-1.737-8.613-1.882-3.33-.724-2.75-6.3-.362-9.12a3.176 3.176 0 0 1 4.632-.651c3.547 3.04 5.5 3.112 7.093 3.257 1.231.072 2.244-1.448 2.678-2.823l8.251-27.867a2.576 2.576 0 0 1 2.244-1.954c2.533 0 4.488 2.244 7.021 4.343a4.128 4.128 0 0 0 3.619.941c5.067-1.086 6.659-9.916 1.23-10.64a21.049 21.049 0 0 1-9.41-2.1 2.307 2.307 0 0 1-.869-2.75l7.962-25.768a10.138 10.138 0 0 0-2.968-.072l-45.021 5.935a9.66 9.66 0 0 0-7.745 6.008c-22 55.372 7.672 87.8 17.878 96.846a10.719 10.719 0 0 0 3.764 2.1l9.554-30.617c.293-1.521-.066-2.752-.938-3.186z" transform="translate(-257.812 -156.512)"/>
                        <path id="Trazado_40378" data-name="Trazado 40378" class="cls-4" d="M287.083 267.62a9.641 9.641 0 0 1-3.547-2.027 78.108 78.108 0 0 1-21.063-31.124 79.249 79.249 0 0 1-4.777-28.663c.145-11.943 2.823-24.465 7.962-37.349a9.8 9.8 0 0 1 7.89-6.152l45.021-5.935a10.7 10.7 0 0 1 3.04.072l.289.072-8.034 26.057a2.1 2.1 0 0 0 .724 2.461c2.316 1.3 5.284 1.954 9.265 2.027a4.06 4.06 0 0 1 3.619 4.2c.145 2.823-1.665 6.225-4.85 6.949a4.447 4.447 0 0 1-3.836-1.013c-.507-.362-.941-.8-1.375-1.158-1.882-1.665-3.547-3.112-5.5-3.112a2.272 2.272 0 0 0-2.027 1.81l-8.252 27.865c-.434 1.592-1.592 3.112-2.9 3.04h-.145c-1.592-.145-3.547-.29-7.021-3.257a2.488 2.488 0 0 0-1.954-.651 3.325 3.325 0 0 0-2.316 1.3c-1.592 1.882-2.316 5.067-1.592 7.021a2.537 2.537 0 0 0 1.882 1.737c2.751.145 6.225.507 8.686 1.954a2.718 2.718 0 0 1 .941 3.112l-9.627 30.979-.217-.072c-.069-.071-.213-.071-.286-.143zm34.164-110.671a7.872 7.872 0 0 0-2.606 0l-45.021 5.935a9.317 9.317 0 0 0-7.528 5.863c-5.067 12.812-7.745 25.261-7.89 37.132a77.809 77.809 0 0 0 25.7 59.353 10.273 10.273 0 0 0 3.474 1.954l9.482-30.4a2.15 2.15 0 0 0-.724-2.606c-2.389-1.375-6.008-1.737-8.469-1.882h-.072a3.02 3.02 0 0 1-2.244-2.027 8.665 8.665 0 0 1 1.665-7.455 3.837 3.837 0 0 1 2.606-1.448 3.041 3.041 0 0 1 2.316.8c3.33 2.9 5.211 3.04 6.731 3.185h.145c1.013.072 2.027-1.3 2.389-2.678l8.251-27.867a2.729 2.729 0 0 1 2.461-2.171c2.171 0 3.836 1.52 5.863 3.257.434.362.869.8 1.375 1.158a3.923 3.923 0 0 0 3.4.869 6.269 6.269 0 0 0 4.415-6.442 3.574 3.574 0 0 0-3.185-3.764c-4.053-.145-7.093-.8-9.482-2.1a2.6 2.6 0 0 1-1.013-3.04z" transform="translate(-257.688 -156.291)"/>
                    </g>
                    <g id="Grupo_47536" data-name="Grupo 47536" transform="translate(27.306 .296)">
                        <path id="Trazado_40379" data-name="Trazado 40379" class="cls-6" d="M372.793 199.967a9.691 9.691 0 0 0-2.751-9.41l-33.006-31.2a9.377 9.377 0 0 0-4.922-2.461l-7.962 25.768a2.244 2.244 0 0 0 .869 2.751 20.621 20.621 0 0 0 9.41 2.1c5.5.724 3.836 9.554-1.23 10.64a4.128 4.128 0 0 1-3.619-.941c-2.533-2.1-4.488-4.343-7.021-4.343a2.6 2.6 0 0 0-2.244 1.954l-8.251 28.012c-.434 1.375-1.448 2.968-2.678 2.823-1.592-.145-3.547-.145-7.093-3.257a3.241 3.241 0 0 0-4.632.651c-2.389 2.823-2.9 8.469.362 9.12 3.04.145 6.3.579 8.613 1.882a2.384 2.384 0 0 1 .8 2.823l-9.56 30.621a10.119 10.119 0 0 0 3.619.362c13.68-1.232 56.603-10.135 71.296-67.895z" transform="translate(-295.499 -156.755)"/>
                        <path id="Trazado_40380" data-name="Trazado 40380" class="cls-6" d="M297.575 267.805 307.2 236.9a2.15 2.15 0 0 0-.724-2.606c-2.389-1.375-6.008-1.737-8.469-1.882h-.072a3.02 3.02 0 0 1-2.244-2.027 8.665 8.665 0 0 1 1.665-7.455 3.838 3.838 0 0 1 2.606-1.448 3.041 3.041 0 0 1 2.316.8c3.33 2.9 5.211 3.04 6.732 3.185h.145c1.013.072 2.027-1.3 2.389-2.678l8.251-27.867a2.729 2.729 0 0 1 2.461-2.171c2.171 0 3.836 1.52 5.863 3.257.434.362.869.8 1.375 1.158a3.923 3.923 0 0 0 3.4.869 6.269 6.269 0 0 0 4.415-6.442 3.574 3.574 0 0 0-3.185-3.764c-4.053-.145-7.093-.8-9.482-2.1a2.6 2.6 0 0 1-1.013-3.04l7.962-25.985.217.072a10.52 10.52 0 0 1 5.067 2.533l33.006 31.2a9.948 9.948 0 0 1 2.823 9.627 106.72 106.72 0 0 1-15.417 34.888 78.032 78.032 0 0 1-55.951 33.3 9.065 9.065 0 0 1-3.691-.362zm7.025-34.815a10.934 10.934 0 0 1 2.1.941 2.718 2.718 0 0 1 .941 3.112l-9.482 30.4a10.219 10.219 0 0 0 3.33.29 77.936 77.936 0 0 0 55.661-33.078c6.8-9.7 11.943-21.352 15.345-34.743a9.481 9.481 0 0 0-2.678-9.192l-33.006-31.2a9.6 9.6 0 0 0-4.56-2.389l-7.89 25.551a2.1 2.1 0 0 0 .724 2.461c2.316 1.3 5.284 1.954 9.265 2.027h0a4.06 4.06 0 0 1 3.619 4.2c.145 2.823-1.665 6.225-4.85 6.949a4.447 4.447 0 0 1-3.836-1.013c-.507-.362-.941-.8-1.375-1.158-1.882-1.665-3.547-3.112-5.5-3.112a2.272 2.272 0 0 0-2.027 1.81l-8.251 27.867c-.434 1.592-1.592 3.112-2.9 3.04h-.145c-1.592-.145-3.547-.29-7.021-3.257a2.488 2.488 0 0 0-1.954-.651 3.325 3.325 0 0 0-2.316 1.3c-1.592 1.882-2.316 5.067-1.592 7.021a2.538 2.538 0 0 0 1.882 1.737 26.091 26.091 0 0 1 6.516 1.087z" transform="translate(-295.413 -156.7)"/>
                    </g>
                    <path id="Trazado_40381" data-name="Trazado 40381" class="cls-7" d="M327.545 162.982c-.072 0-.145-.072-.145-.217s.072-.29.217-.29l10.64-1.375c.145 0 .289.072.289.217s-.072.29-.217.29l-10.64 1.375z" transform="translate(-276.941 -157.619)"/>
                    <path id="Trazado_40382" data-name="Trazado 40382" class="cls-7" d="M267.734 183.415c-.145-.072-.217-.145-.145-.29a148.794 148.794 0 0 1 3.836-11.291 6.566 6.566 0 0 1 5.284-4.053l30.255-3.981c.145 0 .29.072.29.217s-.072.29-.217.29l-30.255 3.981a6.085 6.085 0 0 0-4.85 3.764 103.907 103.907 0 0 0-3.836 11.291.318.318 0 0 1-.362.072z" transform="translate(-260.414 -158.365)"/>
                </g>
            </g>
            <path id="Trazado_40376" data-name="Trazado 40376" d="M384.737 192.5s-6.37 1.592-4.488 8.613 7.383 9.337 3.185 13.463c-4.2 4.2-5.791 10.278-2.9 12.812s-.869 11.581 4.994 8.975c2.316-1.013 9.989-26.709 9.989-26.709s1.954-5.284-4.2-11c-5.35-4.854-6.58-6.154-6.58-6.154z" transform="translate(-187.715 -166.291)" style="opacity:.41;fill:#263238"/>
            <g id="Grupo_47534" data-name="Grupo 47534" transform="translate(0 108.723)">
                <path id="Trazado_40376-2" data-name="Trazado 40376" class="cls-9" d="M114.7 319.022c0-6.949 47.193-12.522 105.387-12.522s105.387 5.646 105.387 12.522c0 3.4-11.653 6.587-30.473 8.831 3.4.8 5.356 1.737 5.356 2.678 0 2.75-15.852 5.139-37.349 5.863 2.606.507 4.126 1.013 4.126 1.665 0 1.665-11.436 3.04-25.478 3.04-14.114 0-25.478-1.375-25.478-3.04 0-.869 3.185-1.665 8.251-2.244-13.463-.941-23.017-2.533-25.044-4.488-48.277-1.158-84.685-6.227-84.685-12.305z" transform="translate(-114.7 -306.5)"/>
            </g>
            <g id="Grupo_47536-2" data-name="Grupo 47536" transform="translate(21.929 1.075)">
                <g id="Grupo_47539" data-name="Grupo 47539" transform="translate(.809 38.379)">
                    <path id="Trazado_40383" data-name="Trazado 40383" d="M146.393 210.8a23.448 23.448 0 0 0 10.568 10.278c8.975 4.415 15.779-.941 23.6-3.836.507 8.975-.579 18.819-7.093 18.53-12.956-.579-29.387-12.377-27.143-24.537a.479.479 0 0 1 .068-.435z" transform="translate(-146.114 -210.8)" style="fill:#f28913"/>
                </g>
                <g id="Grupo_47558" data-name="Grupo 47558">
                    <g id="Grupo_47557" data-name="Grupo 47557">
                        <g id="Grupo_47556" data-name="Grupo 47556">
                            <g id="Grupo_47540" data-name="Grupo 47540" transform="translate(7.374 53.796)">
                                <path id="Trazado_40385" data-name="Trazado 40385" class="cls-6" d="M259.28 232.1c36.7 6.731 47.048 26.709 44.587 43.284 2.244 7.962 1.81 14.114-1.3 18.168-4.271 5.573-12.739 6.225-19.036 6.225H190.59c-13.9 0-23.813-4.488-29.676-13.391-10.061-15.417-4.632-40.678-.579-49.8" transform="translate(-155.185 -232.1)"/>
                            </g>
                            <g id="Grupo_47549" data-name="Grupo 47549">
                                <g id="Grupo_47548" data-name="Grupo 47548">
                                    <g id="Grupo_47545" data-name="Grupo 47545">
                                        <g id="Grupo_47541" data-name="Grupo 47541">
                                            <path id="Trazado_40386" data-name="Trazado 40386" class="cls-6" d="M182.275 179.508c-1.737 1.448-4.2 3.4-2.389 14.4.579 3.33 3.04 20.05-2.171 25.913a5.75 5.75 0 0 1-4.7 1.954c-8.613-.362-18.385-5.429-23.813-12.3-3.4-4.271-4.777-8.758-3.981-13.029.507-2.9 15.779-23.307 29.966-27.794 3.4-6.008 13.608-10.568 24.61-10.857 13.029-.362 23.886 5.067 29.893 14.911 2.316 3.764 2.823 7.311 3.33 10.423.651 4.343 1.158 7.745 6.008 10.64 1.737 1.013 3.33 2.027 4.922 2.9 4.56 2.678 8.469 5.067 12.522 7.89a3.42 3.42 0 0 1 1.448 2.968c.145 6.659-12.088 20.05-16.069 23.017-2.75 2.1-6.152 2.823-9.916 2.823-4.922 0-10.206-1.3-14.911-2.389-4.56-1.086-8.831-2.1-10.133-1.158a1.364 1.364 0 0 0-.434.869" transform="translate(-144.996 -157.776)"/>
                                        </g>
                                        <g id="Grupo_47542" data-name="Grupo 47542" transform="translate(52.024 18.237)">
                                            <path id="Trazado_40388" data-name="Trazado 40388" d="M217.181 203.838c-1.737-9.844 3.981-19.036 12.811-20.629s18.169 4.991 19.108 14.911c.29 3.33-6.37 14.549-12.667 18.6-7.598 4.852-17.514-3.038-19.252-12.882z" transform="translate(-216.871 -182.972)" style="fill:none;stroke:#263238;stroke-miterlimit:10"/>
                                        </g>
                                        <g id="Grupo_47543" data-name="Grupo 47543" transform="translate(86.309 27.321)">
                                            <path id="Trazado_40389" data-name="Trazado 40389" d="M265.875 195.579c2.389.507 3.33 5.429 2.389 6.442-1.013 1.086-3.474-.507-3.836-2.606s-.362-4.271 1.447-3.836z" transform="translate(-264.239 -195.523)"/>
                                        </g>
                                        <g id="Grupo_47544" data-name="Grupo 47544" transform="translate(83.531 65.884)">
                                            <path id="Trazado_40390" data-name="Trazado 40390" class="cls-6" d="M260.4 248.8c1.882 1.52 14.042 4.415 18.24 0" transform="translate(-260.4 -248.8)"/>
                                        </g>
                                    </g>
                                    <g id="Grupo_47546" data-name="Grupo 47546" transform="translate(3.043 12.756)">
                                        <path id="Trazado_40391" data-name="Trazado 40391" class="cls-9" d="M149.2 196.97c1.882 6.3 6.37 10.857 11.943 11.364 7.962.651 15.128-7.166 16-17.444.507-6.152-1.3-11.8-4.56-15.49-9.631 4.7-19.113 15.49-23.383 21.57z" transform="translate(-149.2 -175.4)"/>
                                    </g>
                                    <g id="Grupo_47547" data-name="Grupo 47547" transform="translate(68.053 32.246)">
                                        <path id="Trazado_40392" data-name="Trazado 40392" d="M245.808 205.709a3.9 3.9 0 0 1-2.751 4.56 3.665 3.665 0 0 1-3.981-3.33 3.9 3.9 0 0 1 2.75-4.56c1.883-.361 3.62 1.159 3.982 3.33z" transform="translate(-239.016 -202.326)"/>
                                    </g>
                                </g>
                            </g>
                            <g id="Grupo_47550" data-name="Grupo 47550" transform="translate(41.115 98.528)">
                                <path id="Trazado_40393" data-name="Trazado 40393" class="cls-6" d="M256.955 293.9c1.81 6.949 1.3 12.088-1.52 15.779-4.777 6.225-15.707 7.093-25.768 7.093-24.175 0-27.867-1.013-27.867-7.89 0-2.968 4.343-3.836 9.337-4.777 4.85-.941 10.423-2.027 12.377-5.067a5.5 5.5 0 0 0 .507-4.488" transform="translate(-201.8 -293.9)"/>
                            </g>
                            <g id="Grupo_47551" data-name="Grupo 47551" transform="translate(33.727 100.338)">
                                <path id="Trazado_40394" data-name="Trazado 40394" class="cls-6" d="M204.265 305.737c-5.863 0-8.034-1.375-10.64-4.126a7.019 7.019 0 0 1-2.025-5.211" transform="translate(-191.593 -296.4)"/>
                            </g>
                            <g id="Grupo_47552" data-name="Grupo 47552" transform="translate(97.356 92.593)">
                                <path id="Trazado_40395" data-name="Trazado 40395" class="cls-6" d="M305.485 285.7a.665.665 0 0 1-.579.8c-6.731 1.23-14.114 5.5-14.476 11.871a1.343 1.343 0 0 1-.507.869 1.837 1.837 0 0 1-1.158.289 17.294 17.294 0 0 1-2.244-.289c-2.027-.362-4.2-1.086-7.021-.362" transform="translate(-279.5 -285.7)"/>
                            </g>
                            <g id="Grupo_47553" data-name="Grupo 47553" transform="translate(111.104 105.766)">
                                <path id="Trazado_40396" data-name="Trazado 40396" class="cls-6" d="M334.978 303.9c-5.356 5.863-18.964 7.817-28.88 9.192q-3.257.434-5.646.869c-1.23.217-2.027 1.013-1.954 1.954.072 1.158 1.52 2.244 4.415 2.244a.725.725 0 0 1 .724.724" transform="translate(-298.494 -303.9)"/>
                            </g>
                            <g id="Grupo_47554" data-name="Grupo 47554" transform="translate(92.217 54.303)">
                                <path id="Trazado_40397" data-name="Trazado 40397" class="cls-9" d="M326.107 247.855c5.863 10.278-16.575 17.516-33.151 16.865-16.648-.651-20.484-9.554-20.556-11 1.592-.29 5.863-1.737 13.391-11.074 6.37-7.962 6.514-9.844 6.514-9.844s21.135 2.098 33.802 15.053z" transform="translate(-272.4 -232.8)"/>
                            </g>
                            <g id="Grupo_47555" data-name="Grupo 47555" transform="translate(101.685 45.251)">
                                <path id="Trazado_40398" data-name="Trazado 40398" d="M291.43 220.3c-1.737-.145-6.225 3.547-5.935 5.5.507 3.547 6.08 7.455 7.6 6.152 4.415-3.764 4.85-11.219-1.665-11.652z" transform="translate(-285.482 -220.294)"/>
                            </g>
                        </g>
                    </g>
                </g>
            </g>
            <g id="Grupo_47538" data-name="Grupo 47538" transform="translate(29.203 72.026)" style="opacity:.41">
                <path id="Trazado_42181" data-name="Trazado 42181" class="cls-9" d="M156.678 255.8c1.013 12.015 4.632 13.029 11.509 11.653 20.412-4.27 20.122 7.455 25.478 10.857 12.45 8.107 14.693 3.619 29.459-3.691 11.581-5.718 34.164 11 34.164 11 3.185-3.112 13.97-8.107 13.97-8.107 20.918 5.429 17.227 12.522 32.572-.362a28.489 28.489 0 0 1-.362 5.573c7.528 26.057-16.069 23.6-24.827 23.6h-88.668c-36.842-.073-37.204-31.631-33.295-50.523z" transform="translate(-155.047 -255.8)"/>
            </g>
        </g>
    </g>
</svg>
