<svg xmlns="http://www.w3.org/2000/svg" width="319.381" height="235.697">
    <defs>
        <linearGradient id="linear-gradient" x1=".5" x2=".5" y2="1" gradientUnits="objectBoundingBox">
            <stop offset="0" stop-color="#eb0029"/>
            <stop offset="1" stop-color="#ff4040"/>
        </linearGradient>
        <style>
            .cls-1,.cls-7{fill:#ea0129}.cls-1{opacity:.292}.cls-5{fill:none}.cls-12,.cls-5,.cls-6{stroke:#263238}.cls-12,.cls-6{fill:#fff;stroke-linecap:round;stroke-linejoin:round;stroke-miterlimit:10}.cls-10{fill:#263238}.cls-12{stroke-width:1.2px}
        </style>
    </defs>
    <g id="Grupo_54366" data-name="Grupo 54366" transform="translate(6158.518 16913.364)">
        <g id="Grupo_54360" data-name="Grupo 54360" transform="translate(-6947.311 -17505.332)">
            <g id="Grupo_30900" data-name="Grupo 30900">
                <path id="Trazado_34903" data-name="Trazado 34903" class="cls-1" d="M668.651 452.491h-8.093V444.3h-5.265v8.19H647.2v5.168h8.093v8.093h5.265v-8.093h8.093z" transform="translate(202.851 325.042)"/>
                <path id="Trazado_34904" data-name="Trazado 34904" class="cls-1" d="M661.094 449.605h-5.242v-5.3h-3.41v5.3H647.2v3.347h5.242v5.242h3.41v-5.242h5.242z" transform="translate(379.699 265.705)"/>
                <path id="Trazado_34905" data-name="Trazado 34905" class="cls-1" d="M674.987 454.91H664.5V444.3h-6.821v10.61H647.2v6.69h10.483v10.483h6.817V461.6h10.483z" transform="translate(402.187 296.563)"/>
                <path id="Trazado_34906" data-name="Trazado 34906" d="M8.978 0h14.331a1.833 1.833 0 0 1 1.574.906l7.167 12.416a1.811 1.811 0 0 1 0 1.819l-7.159 12.416a1.818 1.818 0 0 1-1.574.906H8.985a1.833 1.833 0 0 1-1.574-.906L.245 15.141a1.811 1.811 0 0 1 0-1.819L7.411.906A1.8 1.8 0 0 1 8.978 0z" transform="rotate(-73 1034.788 -307.824)" style="fill:url(#linear-gradient);stroke:#f01130"/>
                <path id="Trazado_34907" data-name="Trazado 34907" d="M13.182 0h21.043a2.692 2.692 0 0 1 2.311 1.33l10.522 18.23a2.659 2.659 0 0 1 0 2.671l-10.511 18.23a2.669 2.669 0 0 1-2.311 1.33H13.193a2.692 2.692 0 0 1-2.311-1.33L.36 22.231a2.659 2.659 0 0 1 0-2.671L10.881 1.33A2.638 2.638 0 0 1 13.182 0z" transform="rotate(-73 861.092 -223.572)" style="fill:url(#linear-gradient)"/>
                <path id="Trazado_34908" data-name="Trazado 34908" d="M33.66 0A33.66 33.66 0 1 1 0 33.66 33.66 33.66 0 0 1 33.66 0z" transform="rotate(-90 773.081 -76.97)" style="fill:transparent;stroke:#e91a3e;opacity:.516"/>
            </g>
            <g id="Grupo_21773" data-name="Grupo 21773" transform="translate(-2683 19260)">
                <path id="Trazado_29812" data-name="Trazado 29812" class="cls-5" d="M1114.562 99.029c3.563-2.138 3.013-7.138.327-9.716-.991-.95-2.686.391-1.687 1.351 1.923 1.843 2.716 5.642-.347 6.74a5.928 5.928 0 0 0-.618-2.173c-1.326-2.555-5.539-3.125-5.4.607a4.1 4.1 0 0 0 3.626 3.806c-.285.714-.909 1.19-2.148 1-1.374-.207-1.583 1.943-.209 2.15a3.941 3.941 0 0 0 4.543-3.106 5.249 5.249 0 0 0 1.913-.659zm-4.469-3.192a4.381 4.381 0 0 1 .514 1.73c-.961-.167-1.135-.746-.514-1.73z" transform="translate(2673.604 -18679.559)"/>
                <path id="Trazado_29813" data-name="Trazado 29813" class="cls-5" d="M7.724 3.822c3.563 2.138 3.013 7.138.327 9.716-.991.95-2.686-.391-1.687-1.351 1.923-1.843 2.716-5.642-.347-6.74A5.928 5.928 0 0 1 5.4 7.62C4.074 10.175-.139 10.745 0 7.013a4.1 4.1 0 0 1 3.63-3.805c-.285-.714-.909-1.19-2.148-1C.109 2.413-.1.263 1.273.056a3.941 3.941 0 0 1 4.543 3.105 5.249 5.249 0 0 1 1.908.661zM3.255 7.014a4.38 4.38 0 0 0 .514-1.73c-.961.171-1.135.747-.514 1.73z" transform="rotate(-178 1579.018 -9325.679)"/>
                <path id="Trazado_29816" data-name="Trazado 29816" class="cls-5" d="M7.724 10.041C11.286 7.9 10.737 2.9 8.051.325c-.991-.95-2.686.391-1.687 1.351 1.923 1.844 2.716 5.643-.346 6.74A5.928 5.928 0 0 0 5.4 6.243C4.074 3.688-.139 3.118 0 6.85a4.1 4.1 0 0 0 3.63 3.806c-.285.714-.909 1.19-2.148 1C.108 11.45-.1 13.6 1.272 13.808A3.941 3.941 0 0 0 5.816 10.7a5.249 5.249 0 0 0 1.908-.659zM3.255 6.849a4.382 4.382 0 0 1 .514 1.73c-.961-.171-1.135-.746-.514-1.73z" transform="rotate(-68 -11876.752 -12000.232)"/>
                <path id="Trazado_29818" data-name="Trazado 29818" class="cls-5" d="M7.724 3.822c3.563 2.138 3.013 7.138.327 9.716-.991.95-2.686-.391-1.687-1.351 1.923-1.843 2.716-5.642-.347-6.74A5.929 5.929 0 0 1 5.4 7.62C4.074 10.175-.139 10.745 0 7.013a4.1 4.1 0 0 1 3.63-3.805c-.285-.714-.909-1.19-2.148-1C.108 2.413-.1.263 1.273.056a3.94 3.94 0 0 1 4.543 3.105 5.25 5.25 0 0 1 1.908.661zM3.255 7.014a4.379 4.379 0 0 0 .514-1.73c-.961.171-1.135.747-.514 1.73z" transform="scale(-1) rotate(19.01 -56947.901 -1455.839)"/>
                <path id="Trazado_29820" data-name="Trazado 29820" class="cls-5" d="M1080.831 103.434a5.666 5.666 0 0 1-4.142-3.723c-.643-2.005-3.853-1.256-3.2.766a9.014 9.014 0 0 0 6.391 6.112c2.051.511 3.012-2.646.951-3.155z" transform="translate(2586.947 -18719.656)"/>
                <path id="Trazado_29822" data-name="Trazado 29822" class="cls-5" d="M7.432 3.209A5.666 5.666 0 0 0 3.29 6.933C2.647 8.938-.564 8.189.087 6.167A9.014 9.014 0 0 1 6.477.055c2.055-.507 3.017 2.645.955 3.154z" transform="rotate(-178 1629.551 -9298.448)"/>
                <path id="Trazado_29823" data-name="Trazado 29823" class="cls-5" d="M1080.831 103.434a5.666 5.666 0 0 1-4.142-3.723c-.643-2.005-3.853-1.256-3.2.766a9.014 9.014 0 0 0 6.391 6.112c2.051.511 3.012-2.646.951-3.155z" transform="translate(2642.066 -18566.586)"/>
                <path id="Trazado_29824" data-name="Trazado 29824" class="cls-5" d="M1080.831 103.434a5.666 5.666 0 0 1-4.142-3.723c-.643-2.005-3.853-1.256-3.2.766a9.014 9.014 0 0 0 6.391 6.112c2.051.511 3.012-2.646.951-3.155z" transform="translate(2642.066 -18566.586)"/>
                <path id="Trazado_29825" data-name="Trazado 29825" class="cls-5" d="M7.432 3.209A5.666 5.666 0 0 0 3.29 6.933C2.647 8.938-.564 8.189.087 6.167A9.014 9.014 0 0 1 6.477.055c2.055-.507 3.017 2.645.955 3.154z" transform="rotate(-178 1599.824 -9299.067)"/>
                <path id="Trazado_29828" data-name="Trazado 29828" class="cls-5" d="M1080.831 103.434a5.666 5.666 0 0 1-4.142-3.723c-.643-2.005-3.853-1.256-3.2.766a9.014 9.014 0 0 0 6.391 6.112c2.051.511 3.012-2.646.951-3.155z" transform="translate(2663.664 -18686.457)"/>
                <path id="Trazado_29830" data-name="Trazado 29830" class="cls-5" d="M7.432 3.209A5.666 5.666 0 0 0 3.29 6.933C2.647 8.938-.564 8.189.087 6.167A9.014 9.014 0 0 1 6.477.055c2.055-.507 3.017 2.645.955 3.154z" transform="rotate(-178 1616.307 -9331.22)"/>
            </g>
        </g>
        <g id="Grupo_54362" data-name="Grupo 54362" transform="translate(-6969.979 -17505.332)">
            <g id="Grupo_30901" data-name="Grupo 30901" transform="translate(922.979 655.383)">
                <g id="Grupo_34099" data-name="Grupo 34099">
                    <g id="Grupo_34098" data-name="Grupo 34098">
                        <g id="Grupo_34097" data-name="Grupo 34097">
                            <g id="Grupo_34096" data-name="Grupo 34096">
                                <g id="Grupo_34089" data-name="Grupo 34089">
                                    <g id="Grupo_34077" data-name="Grupo 34077" transform="translate(0 35.799)">
                                        <g id="Grupo_34076" data-name="Grupo 34076">
                                            <g id="Grupo_34075" data-name="Grupo 34075">
                                                <path id="Trazado_36627" data-name="Trazado 36627" class="cls-6" d="m201.587 223.047 92.487-.847 2.672 62.831-95.746-.717z" transform="translate(-201 -222.2)"/>
                                            </g>
                                        </g>
                                    </g>
                                    <g id="Grupo_34080" data-name="Grupo 34080" transform="translate(.652)">
                                        <g id="Grupo_34079" data-name="Grupo 34079">
                                            <g id="Grupo_34078" data-name="Grupo 34078">
                                                <path id="Trazado_36628" data-name="Trazado 36628" class="cls-6" d="M294.422 203.074 251.991 168.4a5.006 5.006 0 0 0-6.322 0L202 203.921z" transform="translate(-202 -167.275)"/>
                                            </g>
                                        </g>
                                    </g>
                                    <g id="Grupo_34084" data-name="Grupo 34084" transform="translate(0 63.955)">
                                        <g id="Grupo_34083" data-name="Grupo 34083">
                                            <g id="Grupo_34082" data-name="Grupo 34082">
                                                <g id="Grupo_34081" data-name="Grupo 34081">
                                                    <path id="Trazado_36629" data-name="Trazado 36629" class="cls-6" d="M232.416 265.4c.13.13-6.844 7.756-15.512 17.142S201.13 299.423 201 299.292" transform="translate(-201 -265.4)"/>
                                                </g>
                                            </g>
                                        </g>
                                    </g>
                                    <g id="Grupo_34088" data-name="Grupo 34088" transform="translate(63.872 62.913)">
                                        <g id="Grupo_34087" data-name="Grupo 34087">
                                            <g id="Grupo_34086" data-name="Grupo 34086">
                                                <g id="Grupo_34085" data-name="Grupo 34085">
                                                    <path id="Trazado_36630" data-name="Trazado 36630" class="cls-6" d="M330.871 299.517c-.13.13-7.365-7.821-16.164-17.663S298.869 263.93 299 263.8" transform="translate(-298.997 -263.8)"/>
                                                </g>
                                            </g>
                                        </g>
                                    </g>
                                </g>
                                <g id="Grupo_34095" data-name="Grupo 34095" transform="translate(5.019 9.923)">
                                    <g id="Grupo_34094" data-name="Grupo 34094">
                                        <g id="Grupo_34093" data-name="Grupo 34093">
                                            <g id="Grupo_34090" data-name="Grupo 34090" transform="translate(.065 .13)">
                                                <path id="Trazado_36631" data-name="Trazado 36631" class="cls-7" d="m209 212.682-.2-28.874 80.951-1.108.913 30.373-40.28 32.067z" transform="translate(-208.8 -182.7)"/>
                                            </g>
                                            <g id="Grupo_34092" data-name="Grupo 34092">
                                                <g id="Grupo_34091" data-name="Grupo 34091">
                                                    <path id="Trazado_36632" data-name="Trazado 36632" class="cls-7" d="m208.961 212.612.782.587c.521.391 1.238.978 2.216 1.695 1.955 1.5 4.758 3.715 8.408 6.518 7.235 5.605 17.6 13.687 30.177 23.529h-.2c11.6-9.255 25.354-20.205 40.28-32.067l-.065.13c-.2-5.8-.391-11.862-.587-18.054q-.2-6.257-.391-12.319l.2.2c-32.589.456-61.4.782-80.951 1.043l.13-.13c.065 9.06.065 16.294.065 21.248v7.1a3.88 3.88 0 0 0-.065.521v-1.89c0-1.3-.065-3.194-.065-5.67-.065-4.954-.13-12.188-.2-21.248v-.13h.13c19.553-.261 48.3-.717 80.951-1.173h.2v.2q.2 6.061.391 12.319c.2 6.192.391 12.253.587 18.054v.065l-.065.065c-14.926 11.862-28.678 22.812-40.28 32l-.065.065-.065-.065c-12.579-9.842-22.877-17.989-30.112-23.659a951.444 951.444 0 0 1-8.343-6.583c-.978-.782-1.695-1.3-2.151-1.695a5.157 5.157 0 0 1-.912-.656z" transform="translate(-208.7 -182.5)"/>
                                                </g>
                                            </g>
                                        </g>
                                    </g>
                                </g>
                            </g>
                        </g>
                    </g>
                </g>
            </g>
            <g id="Grupo_30902" data-name="Grupo 30902" transform="translate(957.912 684.989)">
                <g id="Grupo_34105" data-name="Grupo 34105">
                    <g id="Grupo_34104" data-name="Grupo 34104">
                        <g id="Grupo_34103" data-name="Grupo 34103">
                            <g id="Grupo_34101" data-name="Grupo 34101">
                                <path id="Trazado_36633" data-name="Trazado 36633" class="cls-6" d="m274.675 212.961-8.864-.261h-9.06a2.184 2.184 0 0 0-2.151 2.216v6.127a26.536 26.536 0 0 0 2.933 12.253 19.351 19.351 0 0 0 8.278 8.408c3.65-1.369 6.387-5.084 8.082-8.212a25.572 25.572 0 0 0 2.933-12.253v-6.127a2.128 2.128 0 0 0-2.151-2.151z" transform="translate(-254.6 -212.7)"/>
                            </g>
                            <g id="Grupo_34102" data-name="Grupo 34102" transform="translate(7.626 8.473)">
                                <path id="Trazado_36634" data-name="Trazado 36634" class="cls-7" d="m269.559 231.827-3.259-2.672 1.108-1.369 1.955 1.629 3.259-3.715 1.3 1.173z" transform="translate(-266.3 -225.7)"/>
                            </g>
                        </g>
                    </g>
                </g>
                <g id="Grupo_34106" data-name="Grupo 34106">
                    <path id="Trazado_36635" data-name="Trazado 36635" class="cls-6" d="m274.675 212.961-8.864-.261h-9.06a2.184 2.184 0 0 0-2.151 2.216v6.127a26.536 26.536 0 0 0 2.933 12.253 19.351 19.351 0 0 0 8.278 8.408c3.65-1.369 6.387-5.084 8.082-8.212a25.572 25.572 0 0 0 2.933-12.253v-6.127a2.128 2.128 0 0 0-2.151-2.151zm-.261 8.8a20.938 20.938 0 0 1-2.346 9.711 15.018 15.018 0 0 1-6.453 6.648 15.577 15.577 0 0 1-6.387-6.648 20.747 20.747 0 0 1-2.346-9.711v-4.888a1.74 1.74 0 0 1 1.695-1.76h14.078a1.74 1.74 0 0 1 1.695 1.76v4.888z" transform="translate(-254.6 -212.7)"/>
                </g>
            </g>
            <g id="Grupo_30903" data-name="Grupo 30903" transform="translate(923.565 691.183)">
                <g id="Grupo_34109" data-name="Grupo 34109">
                    <g id="Grupo_34108" data-name="Grupo 34108">
                        <path id="Trazado_36636" data-name="Trazado 36636" d="m294.387 222.2-46.341 37.151-46.146-36.3" transform="translate(-201.9 -222.2)" style="stroke-linecap:round;stroke-linejoin:round;stroke-miterlimit:10;stroke:#263238;fill:none"/>
                    </g>
                </g>
            </g>
        </g>
        <g id="Grupo_54363" data-name="Grupo 54363" transform="translate(-6974.529 -17505.332)">
            <g id="Grupo_7743" data-name="Grupo 7743" transform="translate(960.691 797.098)">
                <path id="Trazado_21663" data-name="Trazado 21663" d="M1635.133 206.968a163.039 163.039 0 0 0-16.233-4.122l.356-1.672a164.183 164.183 0 0 1 16.415 4.172z" transform="translate(-1618.9 -201.174)" style="fill:#002b49"/>
            </g>
            <g id="Grupo_34112" data-name="Grupo 34112" transform="translate(-2671.311 19260)">
                <g id="Grupo_34112-2" data-name="Grupo 34112">
                    <g id="Grupo_7742" data-name="Grupo 7742" transform="translate(3588.924 -18479.852)">
                        <path id="Trazado_21662" data-name="Trazado 21662" class="cls-10" d="M1641.848 228.408c-2.376 0-5.271-.108-8.843-.365l-4.427-.324c-10.726-.79-19.2-1.415-23.849-.706l-.257-1.69c4.841-.738 13.4-.108 24.232.692l4.428.324c13.586.96 17.026-.173 19.845-1.636.178-.108 6.489-3.234 19.836-9.848 6.539-3.24 13.08-6.479 16.78-8.315 1.523-.756 2.724-2.839 1.989-4.4a3.621 3.621 0 0 0-2.363-1.848c-7.853-1.383-17.229 1.652-26.3 4.587-9.485 3.07-18.445 5.97-24.658 3.32l.6-1.6a6.715 6.715 0 0 0 8.214-3.551 5.191 5.191 0 0 0-.094-4.194 5.79 5.79 0 0 0-3.547-3.058c-22.652-7.366-29.6-9.247-35.327-8.452-.151.022-15.607 2.58-27.744 18.284l-1.353-1.045c12.551-16.241 28.7-18.909 28.859-18.932 6.363-.883 14.491 1.5 36.091 8.519a7.585 7.585 0 0 1 4.57 3.964 6.884 6.884 0 0 1 .124 5.564 7.849 7.849 0 0 1-3.409 3.794c4.96-.295 10.937-2.23 17.149-4.24 9.267-3 18.85-6.1 27.112-4.644a5.289 5.289 0 0 1 3.621 2.808c1.188 2.524-.508 5.533-2.775 6.657-3.7 1.836-10.241 5.076-16.78 8.315-9.535 4.726-19.4 9.611-19.786 9.827-2.38 1.227-4.953 2.193-11.938 2.193z" transform="translate(-1579.009 -185.479)"/>
                    </g>
                    <g id="Grupo_7744" data-name="Grupo 7744" transform="translate(3571.84 -18465.969)">
                        <path id="Trazado_21664" data-name="Trazado 21664" class="cls-10" d="m1608.139 231.738-1.265-1.15 1.777-1.955-32.98-27.881-11.171 13.429-1.314-1.093 12.267-14.755 35.651 30.139z" transform="translate(-1563.189 -198.333)"/>
                    </g>
                    <path id="Trazado_21665" data-name="Trazado 21665" d="M1598.725 226.711a3.248 3.248 0 1 1-3.25-3.248 3.249 3.249 0 0 1 3.25 3.248z" transform="translate(2010.971 -18662.295)" style="fill:#eb0029"/>
                </g>
            </g>
        </g>
        <g id="Grupo_54361" data-name="Grupo 54361" transform="translate(-6959 -17505.332)">
            <g id="Grupo_30896" data-name="Grupo 30896" transform="rotate(24 -583.202 2014.403)">
                <g id="Grupo_30895" data-name="Grupo 30895" transform="translate(387.878 122.755)">
                    <path id="Trazado_34899" data-name="Trazado 34899" class="cls-6" d="M410.071 192.5h0a19.022 19.022 0 0 0-.147 6.618c.479 2.259 1.252 4.492 1.878 6.751a24.808 24.808 0 0 1 1.178 7.1 14.26 14.26 0 0 1-1.989 6.751c-1.031 1.94-2.283 3.8-3.13 5.794a15.166 15.166 0 0 0-1.068 5.794 24.329 24.329 0 0 0 3.13 12.225" transform="translate(-406.79 -192.5)"/>
                </g>
                <path id="Trazado_34900" data-name="Trazado 34900" class="cls-6" d="M411.195 183.995c-.552.773-1.1 1.51-1.657 2.246-.147.221-.368.479-.221.773.258.626 1.178.074 1.62.258.516.184.921.552 1.547.331.331-.11.479-.331.81-.442.258-.074.442-.037.552-.295.147-.442-.368-.957-.516-1.326a4.831 4.831 0 0 1-.552-1.841" transform="translate(-20.478 -64.185)"/>
                <path id="Trazado_34901" data-name="Trazado 34901" class="cls-12" d="M405.005 96.167c-.015 4.787-1.678 9.9-4.086 14.51-3.007 5.758-7.324 10.274-9.981 10.274-4.9 0-14.546-15.025-14.067-24.783.405-7.77 6.3-14.067 14.067-14.067a14.043 14.043 0 0 1 14.067 14.066z"/>
                <path id="Trazado_34902" data-name="Trazado 34902" class="cls-10" d="M420.116 86.967c.6-.353 1.9.136 2.446.353a9.387 9.387 0 0 1 4.239 3.859 9.634 9.634 0 0 1 1.141 7.473c-.082.217-.217-.245-.245-.272a7.113 7.113 0 0 1-.353-1.359 15.458 15.458 0 0 0-5.326-8.424c-.353-.297-2.364-1.359-1.902-1.63z" transform="translate(-25.543 -.347)"/>
            </g>
            <g id="Grupo_30898" data-name="Grupo 30898" transform="rotate(-24 1933.937 -663.404)">
                <g id="Grupo_30895-2" data-name="Grupo 30895" transform="translate(387.873 123.062)">
                    <path id="Trazado_34899-2" data-name="Trazado 34899" class="cls-6" d="M409.721 192.5h0a19.166 19.166 0 0 1 .148 6.668c-.482 2.276-1.262 4.525-1.892 6.8a25 25 0 0 0-1.187 7.15 14.368 14.368 0 0 0 2 6.8c1.039 1.955 2.3 3.829 3.154 5.838a15.281 15.281 0 0 1 1.076 5.838 24.513 24.513 0 0 1-3.154 12.318" transform="translate(-406.79 -192.5)"/>
                </g>
                <path id="Trazado_34900-2" data-name="Trazado 34900" class="cls-6" d="M411.966 184a120.01 120.01 0 0 0 1.67 2.263c.148.223.371.482.223.779-.26.631-1.187.074-1.633.26-.519.186-.928.557-1.558.334-.334-.111-.482-.334-.816-.445-.26-.074-.445-.037-.557-.3-.148-.445.371-.965.519-1.336a4.868 4.868 0 0 0 .557-1.855" transform="translate(-20.716 -63.903)"/>
                <path id="Trazado_34901-2" data-name="Trazado 34901" class="cls-12" d="M376.853 96.274c.016 4.823 1.691 9.977 4.117 14.619 3.03 5.8 7.379 10.351 10.057 10.351 4.935 0 14.656-15.138 14.174-24.971-.408-7.829-6.345-14.174-14.174-14.174a14.149 14.149 0 0 0-14.174 14.175z"/>
                <path id="Trazado_34902-2" data-name="Trazado 34902" class="cls-10" d="M428.273 86.968c-.6-.356-1.917.137-2.464.356a9.457 9.457 0 0 0-4.271 3.888 9.707 9.707 0 0 0-1.15 7.529c.082.219.219-.246.246-.274a7.169 7.169 0 0 0 .356-1.369 15.574 15.574 0 0 1 5.366-8.488c.356-.301 2.382-1.369 1.917-1.642z" transform="translate(-40.909 -.314)"/>
            </g>
            <g id="Grupo_30897" data-name="Grupo 30897" transform="rotate(18 -910.668 2385.957)">
                <g id="Grupo_30895-3" data-name="Grupo 30895" transform="translate(387.114 119.94)">
                    <path id="Trazado_34899-3" data-name="Trazado 34899" class="cls-6" d="M409.844 192.5h0a17.7 17.7 0 0 0-.137 6.159c.446 2.1 1.165 4.181 1.748 6.283a23.091 23.091 0 0 1 1.1 6.6 13.272 13.272 0 0 1-1.851 6.283c-.96 1.806-2.125 3.537-2.913 5.393a14.116 14.116 0 0 0-.994 5.393 22.645 22.645 0 0 0 2.913 11.379" transform="translate(-406.79 -192.5)"/>
                </g>
                <path id="Trazado_34900-3" data-name="Trazado 34900" class="cls-6" d="M411.061 183.974c-.514.72-1.028 1.405-1.542 2.091-.137.206-.343.446-.206.72.24.583 1.1.069 1.508.24.48.171.857.514 1.44.308.308-.1.446-.308.754-.411.24-.069.411-.034.514-.274.137-.411-.343-.891-.48-1.234a4.5 4.5 0 0 1-.514-1.714" transform="translate(-21.305 -66.776)"/>
                <path id="Trazado_34901-3" data-name="Trazado 34901" class="cls-12" d="M403.056 95.193a30.367 30.367 0 0 1-3.8 13.5c-2.8 5.36-6.816 9.562-9.29 9.562-4.559 0-13.539-13.984-13.093-23.067.377-7.232 5.861-13.093 13.093-13.093a13.07 13.07 0 0 1 13.09 13.098z"/>
                <path id="Trazado_34902-3" data-name="Trazado 34902" class="cls-10" d="M420.112 86.958c.556-.329 1.77.126 2.276.329a8.737 8.737 0 0 1 3.946 3.592 8.967 8.967 0 0 1 1.062 6.955c-.076.2-.2-.228-.228-.253a6.62 6.62 0 0 1-.329-1.265 14.387 14.387 0 0 0-4.957-7.841c-.329-.275-2.2-1.264-1.77-1.517z" transform="translate(-26.765 -.652)"/>
            </g>
            <g id="Grupo_30899" data-name="Grupo 30899" transform="rotate(-18.01 2266.056 -1215.642)">
                <g id="Grupo_30895-4" data-name="Grupo 30895" transform="translate(386.851 119.264)">
                    <path id="Trazado_34899-4" data-name="Trazado 34899" class="cls-6" d="M409.45 192.5h0a17.388 17.388 0 0 1 .135 6.049c-.438 2.065-1.145 4.106-1.717 6.171a22.678 22.678 0 0 0-1.077 6.487 13.035 13.035 0 0 0 1.818 6.171c.943 1.773 2.087 3.474 2.861 5.3a13.864 13.864 0 0 1 .976 5.3 22.24 22.24 0 0 1-2.861 11.176" transform="translate(-406.79 -192.5)"/>
                </g>
                <path id="Trazado_34900-4" data-name="Trazado 34900" class="cls-6" d="M411.716 183.969c.5.707 1.01 1.38 1.515 2.053.135.2.337.438.2.707-.236.572-1.077.067-1.481.236-.471.168-.842.5-1.414.3-.3-.1-.438-.3-.741-.4-.236-.067-.4-.034-.5-.269-.135-.4.337-.875.471-1.212a4.416 4.416 0 0 0 .505-1.683" transform="translate(-21.801 -67.398)"/>
                <path id="Trazado_34901-4" data-name="Trazado 34901" class="cls-12" d="M376.853 94.959a29.825 29.825 0 0 0 3.735 13.264c2.749 5.264 6.695 9.392 9.124 9.392 4.477 0 13.3-13.734 12.859-22.655-.37-7.1-5.756-12.859-12.859-12.859a12.837 12.837 0 0 0-12.859 12.858z"/>
                <path id="Trazado_34902-4" data-name="Trazado 34902" class="cls-10" d="M427.51 86.956c-.546-.323-1.739.124-2.236.323a8.581 8.581 0 0 0-3.875 3.527 8.807 8.807 0 0 0-1.043 6.831c.075.2.2-.224.224-.248a6.5 6.5 0 0 0 .323-1.242 14.13 14.13 0 0 1 4.869-7.7c.322-.274 2.161-1.247 1.738-1.491z" transform="translate(-41.121 -.725)"/>
            </g>
        </g>
    </g>
</svg>
