<svg xmlns="http://www.w3.org/2000/svg" width="10.82" height="14.052" viewBox="0 0 10.82 14.052">
    <defs>
        <clipPath id="wh10sv5pca">
            <path data-name="Rectángulo 17682" style="fill:none" d="M0 0h10.82v14.052H0z"/>
        </clipPath>
    </defs>
    <g data-name="Grupo 65658" style="clip-path:url(#wh10sv5pca)">
        <path data-name="Trazado 52870" d="M10.8 5.836A1.65 1.65 0 0 0 9.454 4.2a4.818 4.818 0 0 0-.648-.054c-.028-.481-.018-.937-.085-1.382A3.228 3.228 0 0 0 5.411 0 3.2 3.2 0 0 0 2.2 2.737c-.073.462-.084.934-.124 1.416-.084.005-.157.013-.231.014A1.685 1.685 0 0 0 0 6.037c0 1.538.014 4.644.015 6.182a1.679 1.679 0 0 0 1.807 1.827q3.637.015 7.275 0a1.659 1.659 0 0 0 1.716-1.689c.016-1.651 0-4.87-.017-6.521M3.3 3.909a2.854 2.854 0 0 1 .486-2.039 2.03 2.03 0 0 1 2.183-.67 1.974 1.974 0 0 1 1.5 1.709c.038.325.037.655.054 1z" style="fill:#47545d"/>
    </g>
</svg>
