<svg xmlns="http://www.w3.org/2000/svg" width="40.131" height="40.131" viewBox="0 0 40.131 40.131">
    <defs>
        <clipPath id="law8go06ua">
            <path data-name="Rectángulo 17652" style="fill:none" d="M0 0h40.131v40.131H0z"/>
        </clipPath>
        <clipPath id="miuo1viwfb">
            <path data-name="Rectángulo 17655" style="fill:#af1656" d="M0 0h28.066v23.303H0z"/>
        </clipPath>
    </defs>
    <g data-name="Grupo 65573">
        <g data-name="Grupo 65575">
            <g data-name="Grupo 65574" style="clip-path:url(#law8go06ua)">
                <circle data-name="Elipse 1101" cx="19.995" cy="19.995" r="19.995" transform="translate(.07 .07)" style="stroke:#b2b2b2;stroke-miterlimit:10;stroke-width:.25px;fill:none"/>
            </g>
        </g>
        <g data-name="Grupo 65577">
            <g data-name="Grupo 65576" style="clip-path:url(#law8go06ua)">
                <g data-name="Grupo 65579" transform="translate(6.032 9.088)" style="clip-path:url(#miuo1viwfb)">
                    <path data-name="Trazado 52837" d="M25.928 8.531a12.646 12.646 0 0 0-2.777-4.906A12.119 12.119 0 0 0 14.018 0a12.227 12.227 0 0 0-9.394 3.924 12.786 12.786 0 0 0-2.617 4.62A2.241 2.241 0 0 0 0 10.762V17.4a2.248 2.248 0 0 0 2.242 2.241h1.09A2.248 2.248 0 0 0 5.573 17.4v-6.64a2.244 2.244 0 0 0-1.29-2.02A10.4 10.4 0 0 1 6.27 5.406a10.076 10.076 0 0 1 7.748-3.191 9.838 9.838 0 0 1 7.516 2.924 10.272 10.272 0 0 1 2.15 3.661 2.238 2.238 0 0 0-1.189 1.966V17.4a2.226 2.226 0 0 0 .6 1.514 10.061 10.061 0 0 1-3.652 1.074 4.44 4.44 0 0 0-3.1-1.066c-2 0-3.613.981-3.613 2.19s1.622 2.188 3.617 2.188a4.4 4.4 0 0 0 3.128-1.1 12.5 12.5 0 0 0 6.417-2.425 1.134 1.134 0 0 0 .174-.162 2.241 2.241 0 0 0 2-2.217v-6.64a2.243 2.243 0 0 0-2.139-2.231" style="fill:#af1656"/>
                </g>
            </g>
        </g>
    </g>
</svg>
