<svg xmlns="http://www.w3.org/2000/svg" width="16.505" height="20.629">
    <g data-name="Iconly/Light-outline/Profile">
        <path data-name="Profile" d="M6.886 20.592h-.293l-.149-.006a2.284 2.284 0 0 1-.416-.048 15.885 15.885 0 0 1-2.406-.349l-.264-.056A4.086 4.086 0 0 1 .29 18.169 3.028 3.028 0 0 1 0 16.878a2.966 2.966 0 0 1 .3-1.3 4.47 4.47 0 0 1 3.3-2.009 17.27 17.27 0 0 1 2.413-.342c.741-.065 1.494-.1 2.238-.1s1.5.032 2.238.1l.475.04a17.76 17.76 0 0 1 1.932.3c1.781.367 2.835 1.01 3.316 2.024a3 3 0 0 1 0 2.583c-.478 1.009-1.56 1.667-3.3 2.011l-.483.1a16.208 16.208 0 0 1-1.939.253c-.738.063-1.487.095-2.226.095a29.638 29.638 0 0 1-1.378-.041zm-.756-5.879a16.017 16.017 0 0 0-2.224.315 3.311 3.311 0 0 0-2.274 1.2 1.462 1.462 0 0 0-.144.643 1.5 1.5 0 0 0 .143.647c.263.544 1.057.959 2.3 1.2l.364.077a16 16 0 0 0 1.933.257 1.9 1.9 0 0 0 .3.034l.406.006a24.831 24.831 0 0 0 3.448-.054 14.8 14.8 0 0 0 2.23-.325l.232-.049c1.094-.248 1.8-.643 2.035-1.143a1.509 1.509 0 0 0 0-1.3c-.252-.532-1.04-.949-2.278-1.2a16.065 16.065 0 0 0-2.22-.313h-.013c-.7-.061-1.4-.092-2.1-.092s-1.432.035-2.138.097zM2.777 5.5a5.48 5.48 0 1 1 5.48 5.5 5.5 5.5 0 0 1-5.48-5.5zm1.487 0a3.993 3.993 0 1 0 3.992-4.006A4.005 4.005 0 0 0 4.264 5.5z" style="fill:#eb0029"/>
    </g>
</svg>
