<svg data-name="Grupo 66043" xmlns="http://www.w3.org/2000/svg" width="20" height="20" viewBox="0 0 20 20">
    <g data-name="Elipse 1097" style="fill:#fd6120;stroke:#fd6120">
        <circle cx="10" cy="10" r="10" style="stroke:none"/>
        <circle cx="10" cy="10" r="9.5" style="fill:none"/>
    </g>
    <g data-name="Grupo 65539">
        <path data-name="Trazado 50501" d="M39.265 34.371a.239.239 0 0 1-.232-.255l-.163-1.927a.345.345 0 0 1 .348-.372c1.672-.093 2.809-.929 2.809-2.368v-.023a2.278 2.278 0 0 0-2.46-2.226 3.454 3.454 0 0 0-2.717 1.347.374.374 0 0 1-.3.139.337.337 0 0 1-.348-.325.349.349 0 0 1 .093-.255 4.1 4.1 0 0 1 3.3-1.6 2.977 2.977 0 0 1 3.227 2.9v.023c0 1.834-1.416 2.809-3.135 3.018l-.116 1.649c-.023.186-.116.255-.232.255h-.07zm.023 1.323a.476.476 0 0 1 .488.488v.395a.488.488 0 1 1-.975 0v-.395a.476.476 0 0 1 .487-.487z" transform="translate(-29.2 -21.5)" style="fill:#fff;stroke:#fff;stroke-width:.5px"/>
    </g>
</svg>
