<svg xmlns="http://www.w3.org/2000/svg" width="28.855" height="29.115" viewBox="0 0 28.855 29.115">
    <defs>
        <clipPath id="xi4drky9ra">
            <path data-name="Rectángulo 17782" style="fill:#eb0029" d="M0 0h28.855v29.115H0z"/>
        </clipPath>
    </defs>
    <g data-name="Grupo 66047">
        <g data-name="Grupo 65976" style="clip-path:url(#xi4drky9ra)">
            <path data-name="Trazado 52916" d="M14.428 0 0 4.051c.632 8.143 4.744 20.214 14.428 25.064 9.685-4.85 13.8-16.922 14.428-25.064zm5.22 10.486-4.756 6.659a1.378 1.378 0 0 1-.949.565 1.611 1.611 0 0 1-.168.01 1.369 1.369 0 0 1-.889-.327l-2.861-2.434a1.372 1.372 0 1 1 1.775-2.091l1.724 1.466 3.888-5.443a1.372 1.372 0 0 1 2.233 1.594" style="fill:#eb0029"/>
        </g>
    </g>
</svg>
